<svg width="1309" height="1347" viewBox="0 0 1309 1347" fill="none" xmlns="http://www.w3.org/2000/svg">
<path d="M689.9 5.56006L546.76 51.74L508.26 117.92L489.8 165.64L460.54 188.74L414.38 281.1L392.82 299.56L382.04 354.98V382.68L328.18 442.72L354.34 513.52L388.2 555.08L439 602.8L497.5 635.12L537.52 662.84L574.46 678.22L600.62 699.78L627.94 712.86L660.66 718.26L716.08 727.48L758.4 712.86L803.82 687.46L880.78 607.42L933.12 544.32V468.88V413.48L950.04 391.92L910.02 324.2L865.38 228.76L859.22 207.2L880.78 184.12L879.24 162.56L803.82 93.3L717.62 13.2601L689.9 5.56006Z" fill="#3F7D84" stroke="black" stroke-width="10" stroke-miterlimit="10"/>
<path d="M645.26 696.7L591.38 678.22L539.04 648.98L479 613.58L405.12 550.46L382.04 516.6V493.52C382.04 493.52 368.18 465.82 389.74 442.72C411.28 419.64 395.9 427.32 395.9 427.32L447.46 397.3L531.36 374.98L628.34 361.12H694.52L746.86 373.44L788.42 391.92L845.38 421.16L880.78 448.86L914.64 484.26V516.58L842.3 585.84L780.72 641.26L711.46 696.68H645.26V696.7Z" fill="black" stroke="black" stroke-width="5" stroke-miterlimit="10"/>
<path d="M389.74 536.62H346.64L261.98 572.02L241.98 616.66L206.56 635.12L189.64 696.7L160.38 727.48L120.36 836.78L8 1098.46V1118.46L17.24 1147.72L31.08 1181.58L28.02 1221.6L38.78 1238.52V1263.16L80.34 1312.42L103.44 1338.58H1233.28L1264.06 1300.1L1301 1233.92V1156.94L1271.76 1032.26L1233.28 921.44L1191.72 818.3L1176.32 779.82L1180.94 718.26L1140.92 673.62L1133.22 613.58L1080.88 553.54L1031.62 528.92L977.76 502.76L939.26 487.36H920.8L906.94 547.4L853.06 610.5L817.66 647.44L780.72 678.22L742.24 704.4L694.52 716.72L611.4 704.4L591.38 662.84L535.98 647.44L485.18 619.74L426.68 578.18L389.74 536.62Z" fill="#3F7E85" stroke="black" stroke-width="15" stroke-miterlimit="10"/>
<path d="M384.36 357.28L475.18 314.18L541.36 278.78L606.02 255.7L633.72 246.46H667.58H695.3L653.74 257.24L595.24 277.24L529.04 301.88L507.5 312.64L569.06 297.26L604.48 286.48L638.34 277.24L664.5 272.62L676.82 271.08L629.1 289.56L559.84 317.26L510.58 335.74L473.64 349.6L533.66 340.36L493.64 357.28L464.4 360.36L435.16 371.14L388.98 408.08L350.5 443.48L339.72 458.88L335.1 443.48L356.64 415.78L382.82 383.46L384.36 371.14V357.28Z" fill="black"/>
<path d="M870.76 186.42L856.92 191.04L836.9 181.8L786.1 158.72L741.46 127.94L699.9 92.5398L679.9 81.7598L690.68 92.5398L709.14 112.54L749.16 149.48L769.18 169.5L738.4 161.8L702.98 157.18L676.82 155.64L682.98 163.34L713.76 167.96L744.54 172.58L773.8 181.8H616.78L761.48 191.04H792.26L815.36 198.74L844.6 217.22L875.38 269.54L892.32 312.64L844.6 288.02L787.64 269.54L830.74 288.02L869.24 306.5L910.8 340.36L913.86 355.74L926.18 388.08H918.48L883.08 366.52L841.52 343.44L775.34 323.42L735.32 309.58L727.62 317.26L747.62 332.66L775.34 346.52L819.98 360.36L870.76 388.08L903.1 423.48L906.18 448.1L913.86 468.12L920.02 495.82H932.34V412.7L943.12 391.16L916.94 337.28L880 264.94L864.62 237.22L855.38 206.44L870.76 186.42Z" fill="black"/>
<path d="M610.64 329.58C610.64 329.58 593.7 340.36 610.64 344.98C627.58 349.6 664.52 344.98 664.52 344.98L707.62 346.52L755.34 352.68C755.34 352.68 790.74 361.92 820 381.92C849.24 401.94 799.98 363.44 799.98 363.44L752.26 343.42L709.16 334.18C709.14 334.2 653.74 324.96 610.64 329.58Z" fill="black"/>
<path d="M394.28 307.86L505.18 233.38L529.82 222.6L517.5 244.16L457.48 293.4L398.98 339.58L386.56 347.58L394.28 307.86Z" fill="black"/>
<path opacity="0.8" d="M379.38 681.34L392.64 732.06C393.78 736.44 402.56 740.52 416.92 743.38L483.62 756.62C498.32 759.54 517.6 760.92 536.84 760.42L606.22 758.64C633.48 757.94 660 761 674.02 766.46L849.06 834.6C850.64 835.22 852.4 835.8 854.32 836.36L988.68 875.68C998.46 878.54 1003.78 882.08 1003.78 885.74V919.12C1003.78 921.36 1052.92 926.92 1092.18 931.04C1120.52 934 1136.94 940.96 1132.54 948.08L1109.08 986.14C1108.38 987.28 1108.2 988.44 1108.56 989.58L1114.68 1009.44C1115.58 1012.34 1113.08 1015.24 1107.48 1017.84L1084.54 1028.48C1074.16 1033.28 1074.76 1038.98 1086.14 1043.66L1131.12 1062.18C1137 1064.6 1140.1 1067.34 1140.1 1070.12V1084.3C1140.1 1089.1 1130.88 1093.66 1114.94 1096.74L1071.26 1105.18C1054.06 1108.5 1044.76 1113.52 1046.26 1118.7L1050.44 1133.26C1051.4 1136.56 1056.68 1139.72 1065.6 1142.3L1094.4 1150.64C1108.04 1154.58 1112.92 1159.78 1107.64 1164.68C1098.8 1172.88 1064.26 1178.12 1028.32 1176.72L911.86 1172.22C903.72 1171.9 895.4 1171.92 887.28 1172.28L739.58 1178.8C733.98 1179.04 728.54 1179.46 723.36 1180L656.38 1187.16C637.7 1189.16 616.16 1189.14 597.52 1187.14L415.02 1167.4C396.82 1165.44 375.84 1165.38 357.42 1167.24L240.6 1179.08C191.32 1184.08 137.16 1174.84 143.08 1162.46L298 837.82C302.44 828.52 272.04 820.28 231.68 819.86" fill="#54FFFF"/>
<path d="M433.62 246.46L481.34 211.06L455.16 223.38L464.4 206.44L490.56 189.5L521.36 169.5L555.22 147.94L578.3 127.94L524.44 149.48L505.96 157.18L493.64 164.88L478.26 177.2L462.86 191.04L450.54 211.06L433.62 246.46Z" fill="black"/>
<path d="M361 1140L307 1114L319 1178L323 1226L287 1242H237C237 1242 203 1254 145 1222C145 1222 155 1252 253 1256L235 1266H169C169 1266 113 1280 73 1200C73 1200 75 1258 137 1278C137 1278 173 1290 233 1278L307 1284L261 1294H203H133C133 1294 75 1284 43 1244C43 1244 81 1304 105 1324L241 1326H389L361 1140Z" fill="#102E36"/>
<path d="M1023.16 1242.38H1055.48L1047.78 1297.8H1206.32C1206.32 1297.8 1272.5 1270.1 1267.9 1228.54C1267.9 1228.54 1258.66 1199.3 1278.68 1171.58L1241.74 1028.42L1187.86 876.04L1160.16 805.24L1150.92 760.6V739.06L1112.44 685.18C1112.44 685.18 1127.84 646.7 947.74 654.4C947.74 654.4 1026.24 615.92 1112.44 652.86L1132.46 666.72L1154 705.2L1174.02 723.68L1170.94 779.1L1174.02 799.12L1204.8 873L1247.9 983.82L1269.46 1054.62L1289.48 1137.74L1295.64 1180.84L1297.18 1225.48L1286.4 1253.18L1261.78 1297.82L1234.08 1334.76L1017 1328.58L1023.16 1242.38Z" fill="#102E36"/>
<path d="M1124.76 648.22H1098.6L1100.14 637.44C1100.14 637.44 1083.2 615.9 1004.7 615.9L1024.72 628.22C1024.72 628.22 929.28 625.14 900.04 654.38L892.34 672.86L786.12 719.04L750.72 734.44C750.72 734.44 723.02 756 662.98 752.92L606.02 743.68L553.68 732.9L606.02 735.98L566 723.66L490.58 703.64L422.86 689.78L381.3 677.46L370.52 662.06L419.78 671.3L450.56 674.38L482.88 679L519.82 680.54C519.82 680.54 469.02 637.44 382.82 629.74L362.8 625.12C362.8 625.12 382.82 615.88 424.38 628.2C424.38 628.2 425.92 614.34 373.58 612.8L265.82 625.12C265.82 625.12 307.38 598.96 385.88 602.04C385.88 602.04 348.94 572.8 255.04 611.28L267.36 578.96L295.06 569.72L339.7 549.7L378.18 545.08L390.5 554.32L410.52 575.86L430.54 592.8L470.56 620.5L529.06 654.36L559.84 665.14L584.46 679L602.94 711.32L646.04 719.02H692.22L730.7 715.94L761.48 702.08L804.58 668.22L823.06 662.06L896.94 638.98L933.88 625.12H920.02L943.1 609.72C943.1 609.72 916.94 614.34 889.22 625.12C861.5 635.9 890.76 606.64 890.76 606.64V582.02L913.84 554.32L930.78 495.82L964.64 509.68L1010.82 531.22L1043.14 546.62L1072.38 562.02L1095.46 585.1L1120.08 612.8L1124.7 625.12V648.22H1124.76Z" fill="#102E36"/>
<path d="M797.66 864.48H526.74V721.32H512.88V864.48H503.64L494.4 709.02H475.92L488.24 815.24C488.24 815.24 365.1 715.18 345.08 650.54C345.08 650.54 323.54 670.56 389.72 741.36L431.28 793.7V807.56L479 847.58C479 847.58 494.4 861.44 479 864.52L431.28 827.58L465.14 864.52H451.28L415.88 830.66L389.72 804.5L340.46 762.94L294.28 724.46L257.34 696.76V715.24L258.88 726.02L274.28 747.58L298.9 775.28L308.14 789.14L300.44 792.22L278.9 779.9L269.66 778.36L272.74 787.6L286.6 803L295.84 815.32L312.78 838.4L326.64 864.56L314.32 867.64L286.62 864.56L269.68 867.64L254.28 878.42L269.68 861.48L249.66 875.34L231.18 892.28L225.02 858.42L220.4 818.4L215.78 790.7L211.16 819.94V850.72L217.32 881.5L221.94 895.36L226.56 913.84V936.92L220.4 952.32L209.62 967.72L215.78 995.42L223.48 1020.04L226.56 1032.36L223.48 1035.44L214.24 1013.88L206.54 1003.1V987.7L201.92 1000.02L209.62 1023.1L214.24 1040.04L211.16 1041.58L201.92 1020.04L195.76 1000.02V983.08L192.68 973.84L183.44 969.22C183.44 969.22 174.2 947.68 180.36 941.52L197.3 890.72L178.82 923.04L194.22 875.32L175.74 910.72L169.58 892.24L171.12 841.44L166.5 869.14L163.42 846.06V873.76V899.92L166.5 929.16L172.66 958.4L180.36 975.34L188.06 995.36C188.06 995.36 201.92 1032.3 174.2 1006.14C174.2 1006.14 141.88 953.8 132.64 952.26C132.64 952.26 148.04 1004.6 200.36 1056.94C200.36 1056.94 208.06 1067.72 194.2 1060.02L149.56 1024.62C149.56 1024.62 155.72 1047.7 195.74 1073.88C195.74 1073.88 209.6 1086.2 189.58 1073.88C189.58 1073.88 135.7 1043.1 114.16 1052.32C114.16 1052.32 74.1399 1069.26 63.3599 1089.26C63.3599 1089.26 86.4399 1072.32 103.38 1061.56L108 1060.02L104.92 1064.64C104.92 1064.64 78.7599 1081.58 78.7599 1084.66C78.7599 1087.74 78.7599 1089.28 78.7599 1089.28L95.6999 1073.88L115.72 1063.1H124.96L106.48 1076.96L124.96 1069.26L132.66 1066.18H141.9L157.3 1070.8C157.3 1070.8 141.9 1073.88 140.36 1080.04C140.36 1080.04 154.22 1073.88 171.14 1075.42C171.14 1075.42 208.08 1083.12 220.4 1096.98L214.24 1106.22L205 1104.68L181.92 1096.98L141.9 1095.44L117.28 1100L106.5 1106.16L100.34 1115.4L115.74 1106.16L135.76 1101.54L163.46 1100H185.02L191.18 1103.08L149.62 1129.24L174.24 1123.08L191.18 1118.46L206.58 1115.38L208.12 1118.46L206.58 1124.62L168.1 1138.48L131.16 1153.88L112.68 1163.12V1178.52L146.54 1163.12L180.4 1156.96L225.04 1146.18L205.02 1164.66L218.88 1163.12L237.36 1164.66L254.3 1153.88L252.76 1167.74L269.7 1166.2L285.1 1163.12L305.12 1167.74L1002.42 1164.66L1040.9 1160.04L1093.24 1166.2L1067.08 1147.72L1108.64 1153.88L1131.72 1161.58L1156.34 1172.36L1179.42 1186.22L1193.28 1192.38L1207.14 1175.44L1177.9 1161.58L1140.96 1140.02L1116.34 1133.86L1088.64 1129.24L1082.48 1120L1097.88 1104.6L1104.04 1096.9L1154.84 1130.76L1177.92 1150.78L1207.16 1164.64H1219.48L1222.56 1149.24L1193.32 1124.62L1161 1095.38L1140.98 1078.44L1144.06 1073.82L1164.08 1083.06L1204.1 1109.22L1244.12 1136.92L1248.74 1121.52L1216.34 1100L1196.32 1086.14L1179.38 1067.66L1167.06 1052.26L1108.56 1049.18H1080.86L1082.4 1036.86L1107.02 1032.24L1077.78 1030.7L1096.26 1018.38L1090.1 1001.44L1068.56 1026.06L1060.86 1018.36V1009.12L1073.18 990.64L1114.74 947.54L1140.9 932.14L1153.22 915.2L1164 887.5L1168.62 865.96L1170.16 855.18L1150.14 870.58L1137.82 890.6L1117.8 913.68L1103.94 927.54L1088.54 942.94C1088.54 942.94 1070.06 950.64 1074.68 929.08L1073.14 909.06C1073.14 909.06 1076.22 895.2 1056.2 881.36C1056.2 881.36 1050.04 864.42 1020.8 864.42L1060.82 818.24L1022.34 849.02L1042.36 821.32L1073.14 773.6L1096.22 738.2C1096.22 738.2 1103.92 715.12 1093.14 708.96L1068.52 742.82L1016.18 807.48C1016.18 807.48 983.86 847.5 990.02 798.24L1023.88 722.82L959.22 787.46L913.04 835.18L902.26 849.04L893.02 850.58L885.32 856.74V864.44L843.76 862.9V704.4L826.82 712.1L829.9 862.94L822.2 867.56L816.04 866.02L819.12 712.1L803.72 724.42L802.18 855.26L797.66 864.48Z" fill="#10404A"/>
<path d="M265.06 896.8C265.06 896.8 258.9 866.02 298.92 867.56C338.94 869.1 1011.6 866.02 1011.6 866.02C1011.6 866.02 1043.92 864.48 1042.38 893.72C1040.84 922.96 1019.3 1335.5 1019.3 1335.5H323.56L265.06 896.8Z" fill="#310259" stroke="black" stroke-width="10" stroke-miterlimit="10"/>
<path d="M265.06 896.8C265.06 896.8 258.9 866.02 298.92 867.56C338.94 869.1 1011.6 866.02 1011.6 866.02C1011.6 866.02 1043.92 864.48 1042.38 893.72C1040.84 922.96 1019.3 1335.5 1019.3 1335.5H323.56L265.06 896.8Z" stroke="black" stroke-width="10" stroke-miterlimit="10"/>
<path d="M491.68 1044.28H465.8L462.02 1072.86H418.34L445.84 918.06H510.56L539.14 1072.86H495.18L491.68 1044.28ZM475.76 951.52L469.02 1015.16H488.44L480.08 951.52H475.76Z" fill="white"/>
<path d="M546.96 918.08H591.72V1043.76H631.64V1072.88H546.96V918.08Z" fill="white"/>
<path d="M644.86 918.08H689.62V1072.88H644.86V918.08V918.08Z" fill="white"/>
<path d="M712.82 918.08H795.08V947.2H757.6V976.32H788.62V1005.44H757.6V1043.74H796.16V1072.86H712.82V918.08Z" fill="white"/>
<path d="M851.7 997.36V1072.88H809.62V918.08L847.2 918.04L876.52 992.64V918.06H918.06V1072.86H881.38L851.7 997.36Z" fill="white"/>
<path d="M473.46 1229.94H455.12V1291.96H410.36V1137.16H486.68L516.62 1159.82V1200L494.5 1215.38L516.62 1229.94V1291.96H473.48V1229.94H473.46ZM473.46 1166.3H455.12V1200.82H473.46V1166.3Z" fill="#FCF8FF"/>
<path d="M568.12 1137.16H616.12L646.06 1159.82V1269.58L617.74 1291.96H568.12L538.72 1269.58V1159.82L568.12 1137.16ZM583.48 1166.3V1262.84H601.82V1166.3H583.48Z" fill="#FCF8FF"/>
<path d="M697.56 1137.16H745.56L775.5 1159.82V1269.58L747.18 1291.96H697.56L668.16 1269.58V1159.82L697.56 1137.16ZM712.94 1166.3V1262.84H731.28V1166.3H712.94Z" fill="#FCF8FF"/>
<path d="M870.48 1211.88L884.44 1137.16H937.32V1291.96H896.6V1193.8H894.44L876.1 1291.96H859.38L840.78 1193.8H838.62V1291.96H798.16V1137.16H850.34L866.14 1211.86L870.48 1211.88Z" fill="#FCF8FF"/>
<path d="M533 90L511 124L485 176L557 92L527 114L565 48L551 54" fill="black"/>
<path d="M675 6.45999H694.16L708.54 14.54L732.48 38.76L772.42 75.88L786.78 88.8L780.4 101.72L786.78 109.8L829.9 138.86L860.24 158.24L871.42 176H881V161.46L817.12 104.96L743.66 35.52L706.94 6.45999L687.78 0L675 6.45999Z" fill="black"/>
<path fill-rule="evenodd" clip-rule="evenodd" d="M651.12 769.64C606.98 761.8 578.28 743.12 550.44 699.24C538.32 680.14 516.66 657.74 505.92 632.82C486.56 587.92 450.84 534.78 450.84 477.82C450.84 451.2 448.76 432.84 454.1 411.54C459 392 492 387.64 537 378C593 366 599.2 366 651.12 366" fill="#5F04AF"/>
<path d="M651.12 769.64C606.98 761.8 578.28 743.12 550.44 699.24C538.32 680.14 516.66 657.74 505.92 632.82C486.56 587.92 450.84 534.78 450.84 477.82C450.84 451.2 448.76 432.84 454.1 411.54C459 392 492 387.64 537 378C593 366 599.2 366 651.12 366" stroke="black" stroke-width="10" stroke-miterlimit="10"/>
<path fill-rule="evenodd" clip-rule="evenodd" d="M647.7 769.64C691.84 761.8 720.54 743.12 748.38 699.24C760.5 680.14 782.16 657.74 792.9 632.82C812.26 587.92 847.98 534.78 847.98 477.82C847.98 459.28 848.2 450.02 846.5 433.96C845 420 829 420 784.86 396.02C730.82 366.66 699.62 366 647.7 366" fill="#5F04AF"/>
<path d="M647.7 769.64C691.84 761.8 720.54 743.12 748.38 699.24C760.5 680.14 782.16 657.74 792.9 632.82C812.26 587.92 847.98 534.78 847.98 477.82C847.98 459.28 848.2 450.02 846.5 433.96C845 420 829 420 784.86 396.02C730.82 366.66 699.62 366 647.7 366" stroke="black" stroke-width="10" stroke-miterlimit="10"/>
<path fill-rule="evenodd" clip-rule="evenodd" d="M664.6 611.62L801.16 475.06C805.34 470.88 812.54 473.12 813.54 478.94C821.02 522.12 830.84 652.62 667.54 621.2C663.1 620.36 661.4 614.84 664.6 611.62Z" fill="white" stroke="black" stroke-width="10" stroke-miterlimit="10"/>
<path fill-rule="evenodd" clip-rule="evenodd" d="M634.84 611.62L498.28 475.06C494.1 470.88 486.9 473.12 485.9 478.94C478.42 522.12 468.6 652.62 631.9 621.2C636.36 620.36 638.06 614.84 634.84 611.62Z" fill="white" stroke="black" stroke-width="10" stroke-miterlimit="10"/>
</svg>
