<svg width="1968" height="1968" viewBox="0 0 1968 1968" fill="none" xmlns="http://www.w3.org/2000/svg">
<path d="M1934.82 491.803C1934.82 1114.75 1217.44 1604.26 969.246 1755.08C926.361 1780.11 888.996 1813.57 859.41 1853.44C835.476 1886.23 780.394 1933.11 741.377 1933.11H65.9675C47.8599 1933.11 33.1807 1918.44 33.1807 1900.33V65.5738C33.1807 47.4661 47.8599 32.7869 65.9675 32.7869H1844.98C1860.04 32.1877 1873.56 41.926 1877.77 56.3935C1916.05 198.35 1935.24 344.776 1934.82 491.803V491.803Z" fill="#5F04AF"/>
<path d="M1803.67 459.017C1803.67 1081.97 1086.3 1571.48 838.099 1722.3C795.213 1747.32 757.848 1780.78 728.263 1820.66C704.328 1853.44 649.246 1900.33 610.23 1900.33H33.1807V65.574C33.1807 47.4663 47.8599 32.7871 65.9675 32.7871H1747.93C1784.88 171.853 1803.62 315.127 1803.67 459.017Z" fill="#5F04AF"/>
<path d="M1934.82 491.803C1934.82 705.246 1850.89 902.623 1730.23 1076.39C1593.18 1217.38 1430.89 1311.48 1241.71 1311.48C897.771 1311.48 595.148 1049.18 408.918 760C393.378 735.099 389.771 704.558 399.082 676.721C450.886 524.59 667.607 32.7869 1307.61 32.7869H1844.98C1860.04 32.1877 1873.56 41.926 1877.77 56.3935C1916.05 198.35 1935.24 344.776 1934.82 491.803Z" fill="#5F04AF"/>
<path d="M1836.46 491.803C1836.46 705.246 1752.52 902.623 1631.87 1076.39C1506.62 1205.25 1360.07 1295.08 1190.89 1309.18C773.509 1278.69 489.574 885.246 408.918 760C393.378 735.099 389.771 704.558 399.082 676.721C450.886 524.59 667.607 32.7869 1307.61 32.7869H1746.62C1761.68 32.1877 1775.2 41.926 1779.41 56.3935C1817.69 198.35 1836.88 344.776 1836.46 491.803Z" fill="#5F04AF"/>
<path d="M1537.11 226.229C1274.82 310.819 860.393 488.524 665.639 818.688C642.033 791.803 623.344 768.524 609.902 753.114C592.907 731.308 586.644 703.005 592.852 676.065C637.77 476.721 948.59 196.721 1344.66 196.721C1410.02 195.488 1475.12 205.469 1537.11 226.229V226.229Z" fill="#3F7E85"/>
<path d="M1770.89 622.951C1770.89 819.672 1574.16 1180.33 1246.3 1180.33C1028.92 1180.33 807.607 983.606 665.64 819.672C860.394 491.803 1274.49 311.803 1537.11 227.213C1572.6 239.536 1605.83 257.589 1635.48 280.656C1770.89 383.279 1770.89 557.377 1770.89 622.951Z" fill="#3F7D84"/>
<path d="M793.18 393.442C684.983 481.639 612.852 585.574 592.852 673.115C586.644 700.055 592.907 728.358 609.902 750.164C629.574 775.41 661.377 814.098 702.361 858.36C690.557 693.77 746.295 513.442 793.18 393.442V393.442Z" fill="#EF314C"/>
<path d="M1082.36 590.163C1029.36 587.091 987.073 544.801 984 491.803C984 426.229 1049.57 360.655 1213.51 360.655C1377.44 360.655 1279.08 590.163 1082.36 590.163Z" fill="#F5F5F5"/>
<path d="M918.426 819.672C954.642 819.672 984 790.314 984 754.098C984 717.883 954.642 688.524 918.426 688.524C882.211 688.524 852.853 717.883 852.853 754.098C852.853 790.314 882.211 819.672 918.426 819.672Z" fill="#F5F5F5"/>
<path d="M385.312 1449.84C388.475 1464.45 381.354 1479.35 367.998 1486.06C354.642 1492.78 338.434 1489.61 328.591 1478.36C283.017 1427.87 229.902 1353.44 229.902 1278.69C229.902 1165.9 351.542 1271.47 385.312 1449.84V1449.84Z" fill="#5F04AF"/>
<path d="M1344.66 163.935C929.574 163.935 608.59 457.049 561.049 666.885C552.46 703.474 561.031 741.983 584.328 771.475C735.803 965.574 996.131 1213.11 1246.3 1213.11C1606.95 1213.11 1803.67 823.279 1803.67 622.951C1803.67 318.361 1648.92 163.935 1344.66 163.935ZM635.803 731.148C624.846 717.153 620.863 698.929 624.984 681.639C642.252 619.946 673.688 563.138 716.787 515.738C691.185 599.312 675.342 685.569 669.574 772.787C656.131 756.721 644.656 742.295 635.803 731.148ZM1246.3 1147.54C1053.51 1147.54 857.443 976.393 736.131 846.557C728.262 694.426 777.115 530.492 821.705 415.738C970.261 296.874 1154.41 231.297 1344.66 229.508C1738.1 229.508 1738.1 524.59 1738.1 622.951C1738.1 807.869 1550.89 1147.54 1246.3 1147.54Z" fill="black"/>
<path d="M1213.51 327.87C1019.74 327.87 951.213 416.066 951.213 491.804C954.37 562.886 1011.28 619.795 1082.36 622.952C1273.84 622.952 1387.61 432.132 1297.77 354.427C1273.86 335.606 1243.89 326.163 1213.51 327.87ZM1082.36 557.378C1047.55 554.201 1019.96 526.619 1016.79 491.804C1016.79 446.558 1068.26 393.443 1213.51 393.443C1240.72 393.443 1263.34 400.001 1263.34 426.23C1263.34 472.132 1194.82 557.378 1082.36 557.378Z" fill="black"/>
<path d="M918.426 655.737C864.103 655.737 820.065 699.775 820.065 754.098C820.065 808.421 864.103 852.459 918.426 852.459C972.749 852.459 1016.79 808.421 1016.79 754.098C1016.79 699.775 972.749 655.737 918.426 655.737ZM918.426 786.885C900.318 786.885 885.639 772.206 885.639 754.098C885.639 735.99 900.318 721.311 918.426 721.311C936.534 721.311 951.213 735.99 951.213 754.098C951.213 772.206 936.534 786.885 918.426 786.885Z" fill="black"/>
<path d="M1844.98 0H65.9673C29.7519 0 0.393555 29.3584 0.393555 65.5738V1901.64C0.393555 1937.85 29.7519 1967.21 65.9673 1967.21C773.836 1967.21 760.721 1970.49 782.361 1958.36C888.59 1909.18 877.443 1848.85 985.967 1782.95C1136.46 1691.8 1510.56 1444.26 1749.9 1103.28C1755.21 1098.88 1759.18 1093.09 1761.38 1086.56C1882.69 909.836 1967.61 708.852 1967.61 491.803C1967.65 341.715 1947.58 192.299 1907.93 47.541C1899.89 19.4329 1874.22 0.0422311 1844.98 0ZM951.213 1726.89C828.918 1800.98 842.689 1858.03 754.492 1899.02C744.656 1903.28 764.984 1901.64 65.9673 1901.64V1766.23L76.4591 1773.11C110.988 1796.08 156.911 1791.56 186.295 1762.3L227.607 1720.66C233.778 1714.41 243.15 1712.59 251.213 1716.07C318.003 1746.89 381.22 1784.93 439.738 1829.51C445.413 1833.76 452.316 1836.07 459.41 1836.07C473.522 1836.07 486.052 1827.03 490.514 1813.65C494.977 1800.26 490.372 1785.52 479.082 1777.05C416.673 1729.47 349.152 1689 277.771 1656.39C245.052 1641.47 206.488 1648.69 181.377 1674.43L139.738 1715.74C132.628 1723.01 121.37 1724.25 112.853 1718.69L65.9673 1687.21V876.393C219.082 971.803 626.623 1269.84 789.902 1652.13C794.16 1663.37 804.224 1671.38 816.13 1673C828.037 1674.62 839.878 1669.6 846.989 1659.92C854.101 1650.23 855.345 1637.43 850.23 1626.56C664.328 1193.11 193.836 872.131 65.9673 800V65.5738H929.902C555.148 208.197 409.246 544.59 367.935 666.229C355.096 703.376 360.053 744.363 381.377 777.377C637.771 1178.03 1100.07 1491.48 1524.33 1273.77C1352.93 1448.11 1160.4 1600.33 951.213 1726.89ZM1702.03 1058.36C1558.1 1204.26 1403.02 1278.69 1243.02 1278.69C813.508 1278.69 517.115 867.869 436.787 742.295C426.844 726.204 424.334 706.602 429.902 688.525C479.738 541.311 688.918 65.5738 1307.61 65.5738H1844.66C1882.77 204.443 1902.06 347.799 1902.03 491.803C1902.03 697.377 1819.74 889.18 1702.03 1058.36Z" fill="black"/>
<path d="M254.82 1199.34C224.656 1199.34 197.115 1222.3 197.115 1278.69C197.115 1423.93 366.296 1560.98 373.509 1566.56C383.348 1574.33 396.761 1575.81 408.06 1570.37C419.36 1564.93 426.566 1553.52 426.623 1540.98C426.623 1364.92 329.902 1199.34 254.82 1199.34V1199.34ZM262.689 1269.84C311.817 1320.98 343.395 1386.44 352.853 1456.72C309.246 1409.84 257.115 1334.75 262.689 1269.84Z" fill="black"/>
<path d="M510.229 136.722C495.183 126.845 474.989 130.942 464.983 145.902C266.294 443.607 231.54 674.099 229.901 683.935C228.261 695.648 232.995 707.347 242.319 714.624C251.644 721.901 264.142 723.651 275.106 719.214C286.07 714.778 293.835 704.829 295.475 693.115C295.475 690.82 330.229 466.558 519.737 181.968C529.55 166.837 525.302 146.622 510.229 136.722V136.722Z" fill="black"/>
</svg>
