<svg height="512" viewBox="0 0 60 61" width="512" xmlns="http://www.w3.org/2000/svg"><g id="026---UFO-Eye" fill="none"><g id="Icons" transform="translate(1)"><path id="Shape" d="m58 15c0 19-21.88 33.93-29.45 38.53-1.3080038.7632325-2.4476382 1.7838006-3.35 3-.73 1-2.41 2.43-3.6 2.43h-20.6c-.55228475 0-1-.4477153-1-1v-55.96c0-.55228475.44771525-1 1-1h54.26c.459171-.01827551.8716939.27874094 1 .72 1.1676312 4.32966189 1.7527866 8.7956749 1.74 13.28z" fill="#549414"/><path id="Shape" d="m54 14c0 19-21.88 33.93-29.45 38.53-1.3080038.7632325-2.4476382 1.7838006-3.35 3-.73 1-2.41 2.43-3.6 2.43h-17.6v-55.96c0-.55228475.44771525-1 1-1h51.3c1.1268144 4.24151456 1.6982559 8.61136087 1.7 13z" fill="#60a917"/><path id="Shape" d="m58 15c0 6.51-2.56 12.53-6.24 17.83-4.18 4.3-9.13 7.17-14.9 7.17-10.49 0-19.72-8-25.4-16.82-.4739835-.7594917-.5840021-1.6909825-.3-2.54 1.58-4.64 8.19-19.64 27.71-19.64h16.39c.459171-.01827551.8716939.27874094 1 .72 1.1676312 4.32966189 1.7527866 8.7956749 1.74 13.28z" fill="#007900"/><path id="Shape" d="m55 15c0 6.51-2.56 12.53-6.24 17.83-3.82 3.93-8.29 6.67-13.45 7.1-12.73-.93-21.39-12.93-23.85-16.75-.4739835-.7594917-.5840021-1.6909825-.3-2.54 1.58-4.64 8.19-19.64 27.71-19.64h13.39c.459171-.01827551.8716939.27874094 1 .72 1.1676312 4.32966189 1.7527866 8.7956749 1.74 13.28z" fill="#008a00"/><path id="Shape" d="m45.87 6.9c-8 2.58-20.64 8-26.58 18.07-.72-.82-1.29-1.53-1.7-2-.5183373-.6650758-.7093549-1.5283285-.52-2.35 1.37-6.08 10.85-14.62 22.93-14.62 1.9937173-.03759619 3.9791288.26681103 5.87.9z" fill="#02a9f4"/><path id="Shape" d="m53 19c0 6-6 17-16 17-6.63 0-13.38-6-17.71-11 5.94-10 18.57-15.49 26.58-18.07 1.0823037.37585872 2.0957237.92648355 3 1.63 4.13 3.13 4.13 8.44 4.13 10.44z" fill="#0377bc"/><path id="Shape" d="m23.18 12c-3.3 2.69-5.5 5.86-6.11 8.53-.1893549.8216715.0016627 1.6849242.52 2.35.6.77 1.57 1.95 2.82 3.3-.36-5.02 1.34-10.52 2.77-14.18z" fill="#ef314c"/><path id="Shape" d="m32 18c-1.6164422-.093724-2.906276-1.3835578-3-3 0-2 2-4 7-4s2 7-4 7z" fill="#f5f5f5"/><circle id="Oval" cx="27" cy="23" fill="#f5f5f5" r="2"/><path id="Shape" d="m10.74 44.22c.0964641.4456389-.1207355.9001019-.5280864 1.1049547-.40735085.2048527-.90169263.1082169-1.2019136-.2349547-1.39-1.54-3.01-3.81-3.01-6.09 0-3.44 3.71-.22 4.74 5.22z" fill="#007900"/></g><g id="Outline" fill="#000"><path id="Shape" d="m41 5c-12.66 0-22.45 8.94-23.9 15.34-.2619718 1.115969-.0005586 2.2904876.71 3.19 4.62 5.92 12.56 13.47 20.19 13.47 11 0 17-11.89 17-18 0-9.29-4.72-14-14-14zm-21.62 17.3c-.3341935-.4268238-.4556712-.9826759-.33-1.51.5266998-1.8816405 1.485486-3.6143041 2.8-5.06-.7808676 2.5490243-1.2640827 5.1798624-1.44 7.84-.41-.49-.76-.93-1.03-1.27zm18.62 12.7c-5.88 0-11.86-5.22-15.56-9.18-.24-4.64 1.25-9.64 2.61-13.14 4.5309718-3.62535801 10.1474186-5.62544689 15.95-5.68 12 0 12 9 12 12 0 5.64-5.71 16-15 16z"/><path id="Shape" d="m37 10c-5.91 0-8 2.69-8 5 .0962712 2.1680107 1.8319893 3.9037288 4 4 5.84 0 9.31-5.82 6.57-8.19-.7294005-.5740386-1.6432667-.86206649-2.57-.81zm-4 7c-1.0618449-.0969059-1.9030941-.9381551-2-2 0-1.38 1.57-3 6-3 .83 0 1.52.2 1.52 1 0 1.4-2.09 4-5.52 4z"/><path id="Shape" d="m28 20c-1.6568542 0-3 1.3431458-3 3s1.3431458 3 3 3 3-1.3431458 3-3-1.3431458-3-3-3zm0 4c-.5522847 0-1-.4477153-1-1s.4477153-1 1-1 1 .4477153 1 1-.4477153 1-1 1z"/><path id="Shape" d="m56.26 0h-54.26c-1.1045695 0-2 .8954305-2 2v56c0 1.1045695.8954305 2 2 2 21.59 0 21.19.1 21.85-.27 3.24-1.5 2.9-3.34 6.21-5.35 4.59-2.78 16-10.33 23.3-20.73.1618294-.1341389.2830374-.3107564.35-.51 3.7-5.39 6.29-11.52 6.29-18.14.0012027-4.5776789-.610909-9.13488457-1.82-13.55-.2452099-.85729669-1.0283253-1.44871195-1.92-1.45zm-27.26 52.67c-3.73 2.26-3.31 4-6 5.25-.3.13.32.08-21 .08v-4.13l.32.21c1.05311584.7004088 2.45379085.5624318 3.35-.33l1.26-1.27c.1882312-.1905558.47407848-.2461372.72-.14 2.03707818.9402526 3.9652089 2.1004843 5.75 3.46.1730962.1298221.3836298.2.6.2.4304304 0 .8125693-.2754301.9486833-.6837722.136114-.4083422-.004339-.8579696-.3486833-1.1162278-1.9034854-1.4511264-3.9628824-2.685423-6.14-3.68-.99791044-.4551321-2.17410496-.2350957-2.94.55l-1.27 1.26c-.21684095.2218225-.56020802.2595091-.82.09l-1.43-.96v-24.73c4.67 2.91 17.1 12 22.08 23.66.1298693.342728.4368224.586951.7999685.6364837.363146.0495327.7242929-.1035621.9412058-.3989895.216913-.2954273.2548331-.6858464.0988257-1.0174942-5.67-13.22-20.02-23.01-23.92-25.21v-22.4h26.35c-11.43 4.35-15.88 14.61-17.14 18.32-.3915787 1.1329604-.2403868 2.3830591.41 3.39 7.82 12.22 21.92 21.78 34.86 15.14-5.2277148 5.3174042-11.0999548 9.9601019-17.48 13.82zm22.9-20.39c-4.39 4.45-9.12 6.72-14 6.72-13.1 0-22.14-12.53-24.59-16.36-.3032634-.4907906-.3798163-1.0886321-.21-1.64 1.52-4.49 7.9-19 26.77-19h16.38c1.1623836 4.23551038 1.7509723 8.607884 1.75 13 0 6.27-2.51 12.12-6.1 17.28z"/><path id="Shape" d="m7.76 36.58c-.92 0-1.76.7-1.76 2.42 0 4.43 5.16 8.61 5.38 8.78.3001041.2371517.7091964.2823411 1.0538262.1164082s.5644168-.5139159.5661738-.8964082c0-5.37-2.95-10.42-5.24-10.42zm.24 2.15c1.49840415 1.5599715 2.4615377 3.5562846 2.75 5.7-1.33-1.43-2.92-3.72-2.75-5.7z"/><path id="Shape" d="m15.55 4.17c-.4588827-.30124727-1.0748175-.176275-1.38.28-6.06 9.08-7.12 16.11-7.17 16.41-.05001719.3572656.09436395.7140765.37875644.9360254.28439248.221949.66559034.2753167 1.00000001.14.33440967-.1353166.57122637-.4387598.62124355-.7960254 0-.07 1.06-6.91 6.84-15.59.2993122-.46147246.1697438-1.0780393-.29-1.38z"/></g></g></svg>