<svg width="295" height="507" viewBox="0 0 295 507" fill="none" xmlns="http://www.w3.org/2000/svg">
<path d="M289.35 489.75C289.35 496.32 281.47 501.65 271.76 501.65H23.25C13.53 501.65 5.66 496.32 5.66 489.75V321.72C5.66 315.15 13.53 309.83 23.25 309.83H271.76C281.47 309.83 289.35 315.15 289.35 321.72V489.75Z" fill="black" stroke="#F9F9F9" stroke-width="10" stroke-miterlimit="10"/>
<path fill-rule="evenodd" clip-rule="evenodd" d="M149.06 291.82C126.99 287.9 112.64 278.56 98.72 256.62C92.66 247.07 81.83 235.87 76.46 223.41C66.78 200.96 48.92 174.39 48.92 145.91C48.92 103.16 53.37 64.7 73.47 38.01C91.27 14.4 123.1 0 149.06 0" fill="white"/>
<path fill-rule="evenodd" clip-rule="evenodd" d="M147.35 291.82C169.42 287.9 183.77 278.56 197.69 256.62C203.75 247.07 214.58 235.87 219.95 223.41C229.63 200.96 247.49 174.39 247.49 145.91C247.49 103.16 243.04 64.7 222.94 38.01C205.14 14.4 173.31 0 147.35 0" fill="white"/>
<path fill-rule="evenodd" clip-rule="evenodd" d="M155.8 217.81L224.08 149.53C226.17 147.44 229.77 148.56 230.27 151.47C234.01 173.06 238.92 238.31 157.27 222.6C155.05 222.18 154.2 219.42 155.8 217.81Z" fill="black"/>
<path fill-rule="evenodd" clip-rule="evenodd" d="M140.92 217.81L72.64 149.53C70.55 147.44 66.95 148.56 66.45 151.47C62.71 173.06 57.8 238.31 139.45 222.6C141.68 222.18 142.53 219.42 140.92 217.81Z" fill="black"/>
<path d="M64.78 387.69H52.99L51.27 400.71H31.37L43.9 330.19H73.39L86.41 400.71H66.38L64.78 387.69ZM57.53 345.42L54.46 374.41H63.31L59.5 345.42H57.53Z" fill="white"/>
<path d="M89.97 330.19H110.36V387.44H128.54V400.71H89.96V330.19H89.97Z" fill="white"/>
<path d="M134.57 330.19H154.96V400.71H134.57V330.19Z" fill="white"/>
<path d="M165.52 330.19H203V343.46H185.92V356.73H200.05V370H185.92V387.45H203.49V400.72H165.53V330.19H165.52Z" fill="white"/>
<path d="M228.8 366.31V400.71H209.63V330.19L226.75 330.18L240.1 364.17V330.2H259.02V400.72H242.31L228.8 366.31Z" fill="white"/>
<path d="M56.48 452.63H48.13V480.89H27.74V410.37H62.51L76.15 420.69V439L66.07 446L76.15 452.63V480.89H56.49V452.63H56.48ZM56.48 423.63H48.13V439.36H56.48V423.63Z" fill="white"/>
<path d="M99.6 410.36H121.47L135.11 420.68V470.68L122.21 480.88H99.6L86.21 470.68V420.68L99.6 410.36ZM106.61 423.63V467.61H114.96V423.63H106.61Z" fill="white"/>
<path d="M158.58 410.36H180.45L194.09 420.68V470.68L181.19 480.88H158.58L145.19 470.68V420.68L158.58 410.36ZM165.58 423.63V467.61H173.93V423.63H165.58Z" fill="white"/>
<path d="M237.35 444.4L243.71 410.36H267.8V480.88H249.25V436.16H248.27L239.92 480.88H232.3L223.82 436.16H222.84V480.88H204.4V410.36H228.17L235.37 444.39L237.35 444.4Z" fill="white"/>
</svg>
